# xmcd
#
# Track frame offsets:
#	150
#	37415
#	53785
#	73410
#	92202
#	101198
#	157194
#
# Disc length: 2253 seconds
#
# Revision: 6
# Processed by: cddbd v1.5.1PL0 Copyright (c) Steve Scherf et al.
# Submitted via: dBpowerAMP V4.0
#
DISCID=6d08cb07
DTITLE=Vários - Mundo das Águas
DYEAR=2004
DGENRE=New Age
TTITLE0=PC Bernardes - Espiritualidade
TTITLE1=Andrey Cechelero - Lago
TTITLE2=Zoralkia - Voyage Vers L'Atlantide
TTITLE3=Ulisses Rocha - Rio Acima
TTITLE4=Daniel Tomic - Fluindo
TTITLE5=Corciolli - Prece dos oceanos
TTITLE6=DATA
EXTD=
EXTT0=
EXTT1=
EXTT2=
EXTT3=
EXTT4=
EXTT5=
EXTT6=
PLAYORDER=
